<svg xmlns="http://www.w3.org/2000/svg" viewBox="0 0 512 512" width="512" height="512">
  <defs>
    <linearGradient id="bg" x1="0" y1="0" x2="0" y2="1">
      <stop offset="0%" stop-color="#1E293B"/>
      <stop offset="100%" stop-color="#0F172A"/>
    </linearGradient>
    <linearGradient id="t1" x1="0.5" y1="0" x2="0.5" y2="1">
      <stop offset="0%" stop-color="#93CFFF"/>
      <stop offset="100%" stop-color="#3B82F6"/>
    </linearGradient>
    <linearGradient id="t2" x1="0.5" y1="0" x2="0.5" y2="1">
      <stop offset="0%" stop-color="#60A5FA"/>
      <stop offset="100%" stop-color="#2563EB"/>
    </linearGradient>
  </defs>

  <!-- Rounded square container -->
  <rect x="12" y="12" width="488" height="488" rx="100" fill="url(#bg)"/>

  <!-- Outer ring (faint halo) -->
  <circle cx="256" cy="256" r="200" fill="none" stroke="#3B82F6" stroke-width="3" opacity="0.25"/>
  <circle cx="256" cy="256" r="186" fill="none" stroke="#3B82F6" stroke-width="1.5" opacity="0.15"/>

  <!-- Tentacles as organic tapered flame shapes, alternating two blues -->

  <!-- 12 o'clock -->
  <path d="M248 190 C244 150 230 100 220 52 C224 48 232 52 236 60 C248 100 252 140 256 176 C260 140 264 100 276 60 C280 52 288 48 292 52 C282 100 268 150 264 190 Z" fill="url(#t1)"/>

  <!-- 1 o'clock -->
  <path d="M282 198 C296 164 320 118 342 76 C348 74 352 80 350 88 C336 126 316 162 300 196 C312 168 332 136 358 100 C362 94 370 96 368 104 C348 140 322 172 306 202 Z" fill="url(#t2)"/>

  <!-- 3 o'clock -->
  <path d="M322 248 C362 244 412 230 460 220 C464 224 460 232 452 236 C412 248 372 252 336 256 C372 260 412 264 452 276 C460 280 464 288 460 292 C412 282 362 268 322 264 Z" fill="url(#t1)"/>

  <!-- 5 o'clock -->
  <path d="M306 310 C322 344 348 394 368 436 C366 442 358 444 354 438 C336 400 316 358 300 322 C312 354 332 390 350 428 C348 436 340 440 336 434 C320 394 298 344 286 314 Z" fill="url(#t2)"/>

  <!-- 6 o'clock -->
  <path d="M248 322 C244 362 230 412 220 460 C224 464 232 460 236 452 C248 412 252 372 256 336 C260 372 264 412 276 452 C280 460 288 464 292 460 C282 412 268 362 264 322 Z" fill="url(#t1)"/>

  <!-- 7 o'clock -->
  <path d="M226 314 C210 344 186 394 166 436 C160 440 156 434 160 426 C176 390 196 354 210 322 C198 358 178 394 160 432 C156 438 148 436 150 428 C166 390 192 340 206 310 Z" fill="url(#t2)"/>

  <!-- 9 o'clock -->
  <path d="M190 248 C150 244 100 230 52 220 C48 224 52 232 60 236 C100 248 140 252 176 256 C140 260 100 264 60 276 C52 280 48 288 52 292 C100 282 150 268 190 264 Z" fill="url(#t1)"/>

  <!-- 11 o'clock -->
  <path d="M230 198 C216 164 192 118 170 76 C164 74 160 80 162 88 C176 126 196 162 212 196 C200 168 180 136 154 100 C150 94 142 96 144 104 C164 140 190 172 206 202 Z" fill="url(#t2)"/>

  <!-- 2 o'clock -->
  <path d="M310 206 C338 186 382 156 420 130 C426 132 426 140 420 146 C388 168 352 190 322 210 C356 194 392 172 432 150 C438 150 440 158 434 164 C396 186 350 208 318 222 Z" fill="url(#t1)"/>

  <!-- 4 o'clock -->
  <path d="M318 290 C350 308 396 338 434 364 C438 370 432 376 424 374 C390 354 354 330 322 312 C354 332 390 356 426 380 C430 386 424 392 416 388 C382 366 340 336 310 314 Z" fill="url(#t2)"/>

  <!-- 8 o'clock -->
  <path d="M194 290 C162 308 116 338 78 364 C74 370 80 376 88 374 C122 354 158 330 190 312 C158 332 122 356 86 380 C82 386 88 392 96 388 C130 366 172 336 202 314 Z" fill="url(#t1)"/>

  <!-- 10 o'clock -->
  <path d="M202 206 C174 186 130 156 92 130 C86 132 86 140 92 146 C124 168 160 190 190 210 C156 194 120 172 80 150 C74 150 72 158 78 164 C116 186 162 208 194 222 Z" fill="url(#t2)"/>

  <!-- Central head circle -->
  <circle cx="256" cy="256" r="68" fill="url(#t1)"/>
  <circle cx="256" cy="256" r="62" fill="url(#t2)"/>

  <!-- Eye -->
  <ellipse cx="256" cy="252" rx="28" ry="20" fill="#0F172A"/>
  <ellipse cx="256" cy="252" rx="9" ry="17" fill="#93CFFF"/>
  <ellipse cx="259" cy="247" r="4" fill="#fff" opacity="0.6"/>
</svg>
